<svg xmlns="http://www.w3.org/2000/svg" width="51.96" height="90.00" viewBox="0 0 51.96 90.00"><g fill="#8A6795" stroke="#6B4A78" stroke-width="2.5"><polygon points="0.00,-30.00 -25.98,-15.00 -25.98,15.00 0.00,30.00 25.98,15.00 25.98,-15.00"/><polygon points="0.00,60.00 -25.98,75.00 -25.98,105.00 0.00,120.00 25.98,105.00 25.98,75.00"/><polygon points="0.00,-120.00 -25.98,-105.00 -25.98,-75.00 0.00,-60.00 25.98,-75.00 25.98,-105.00"/><polygon points="51.96,-30.00 25.98,-15.00 25.98,15.00 51.96,30.00 77.94,15.00 77.94,-15.00"/><polygon points="51.96,60.00 25.98,75.00 25.98,105.00 51.96,120.00 77.94,105.00 77.94,75.00"/><polygon points="51.96,-120.00 25.98,-105.00 25.98,-75.00 51.96,-60.00 77.94,-75.00 77.94,-105.00"/><polygon points="25.98,15.00 0.00,30.00 0.00,60.00 25.98,75.00 51.96,60.00 51.96,30.00"/><polygon points="25.98,-75.00 0.00,-60.00 0.00,-30.00 25.98,-15.00 51.96,-30.00 51.96,-60.00"/><polygon points="25.98,105.00 0.00,120.00 0.00,150.00 25.98,165.00 51.96,150.00 51.96,120.00"/></g></svg>